<?xml version="1.0" encoding="UTF-8" standalone="no"?>
<!DOCTYPE svg PUBLIC "-//W3C//DTD SVG 1.1//EN"
 "http://www.w3.org/Graphics/SVG/1.1/DTD/svg11.dtd">
<!-- Generated by graphviz version 2.40.1 (20161225.0304)
 -->
<!-- Title: dependencies Pages: 1 -->
<svg width="729pt" height="284pt"
 viewBox="0.00 0.00 729.00 284.00" xmlns="http://www.w3.org/2000/svg" xmlns:xlink="http://www.w3.org/1999/xlink">
<g id="graph0" class="graph" transform="scale(1 1) rotate(0) translate(4 280)">
<title>dependencies</title>
<polygon fill="#ffffff" stroke="transparent" points="-4,4 -4,-280 725,-280 725,4 -4,4"/>
<text text-anchor="start" x="339.5091" y="-42.4" font-family="sans-serif" font-weight="bold" font-size="14.00" fill="#000000">Legend</text>
<polygon fill="#ffffb3" stroke="transparent" points="126.5,-10 126.5,-30 146.5,-30 146.5,-10 126.5,-10"/>
<text text-anchor="start" x="150.129" y="-15.4" font-family="sans-serif" font-size="14.00" fill="#000000"> &#160;Declarations</text>
<polygon fill="#8dd3c7" stroke="transparent" points="239.5,-10 239.5,-30 259.5,-30 259.5,-10 239.5,-10"/>
<text text-anchor="start" x="263.2251" y="-15.4" font-family="sans-serif" font-size="14.00" fill="#000000"> &#160;Module</text>
<polygon fill="#80b1d3" stroke="transparent" points="325.5,-10 325.5,-30 345.5,-30 345.5,-10 325.5,-10"/>
<text text-anchor="start" x="349.2812" y="-15.4" font-family="sans-serif" font-size="14.00" fill="#000000"> &#160;Bootstrap</text>
<polygon fill="#fdb462" stroke="transparent" points="422.5,-10 422.5,-30 442.5,-30 442.5,-10 422.5,-10"/>
<text text-anchor="start" x="446.1732" y="-15.4" font-family="sans-serif" font-size="14.00" fill="#000000"> &#160;Providers</text>
<polygon fill="#fb8072" stroke="transparent" points="518.5,-10 518.5,-30 538.5,-30 538.5,-10 518.5,-10"/>
<text text-anchor="start" x="542.2258" y="-15.4" font-family="sans-serif" font-size="14.00" fill="#000000"> &#160;Exports</text>
<g id="clust1" class="cluster">
<title>cluster_SharedModule</title>
<polygon fill="none" stroke="#000000" stroke-dasharray="1,5" points="8,-70 8,-268 713,-268 713,-70 8,-70"/>
</g>
<g id="clust2" class="cluster">
<title>cluster_SharedModule_declarations</title>
<polygon fill="none" stroke="#000000" points="427,-78 427,-130 705,-130 705,-78 427,-78"/>
</g>
<g id="clust5" class="cluster">
<title>cluster_SharedModule_imports</title>
<polygon fill="none" stroke="#000000" points="16,-78 16,-130 419,-130 419,-78 16,-78"/>
</g>
<g id="clust6" class="cluster">
<title>cluster_SharedModule_exports</title>
<polygon fill="none" stroke="#000000" points="77,-208 77,-260 644,-260 644,-208 77,-208"/>
</g>
<!-- InputComponent -->
<g id="node1" class="node">
<title>InputComponent</title>
<polygon fill="#ffffb3" stroke="#000000" points="697.3837,-122 586.6163,-122 586.6163,-86 697.3837,-86 697.3837,-122"/>
<text text-anchor="middle" x="642" y="-99.8" font-family="Times,serif" font-size="14.00" fill="#000000">InputComponent</text>
</g>
<!-- SharedModule -->
<g id="node3" class="node">
<title>SharedModule</title>
<polygon fill="#8dd3c7" stroke="#000000" points="412.4231,-187 409.4231,-191 388.4231,-191 385.4231,-187 313.5769,-187 313.5769,-151 412.4231,-151 412.4231,-187"/>
<text text-anchor="middle" x="363" y="-164.8" font-family="Times,serif" font-size="14.00" fill="#000000">SharedModule</text>
</g>
<!-- InputComponent&#45;&gt;SharedModule -->
<g id="edge1" class="edge">
<title>InputComponent&#45;&gt;SharedModule</title>
<path fill="none" stroke="#000000" d="M611.4861,-122.1061C611.4861,-141.3391 611.4861,-169 611.4861,-169 611.4861,-169 422.39,-169 422.39,-169"/>
<polygon fill="#000000" stroke="#000000" points="422.39,-165.5001 412.39,-169 422.3899,-172.5001 422.39,-165.5001"/>
</g>
<!-- SnackbarComponent -->
<g id="node2" class="node">
<title>SnackbarComponent</title>
<polygon fill="#ffffb3" stroke="#000000" points="568.9201,-122 435.0799,-122 435.0799,-86 568.9201,-86 568.9201,-122"/>
<text text-anchor="middle" x="502" y="-99.8" font-family="Times,serif" font-size="14.00" fill="#000000">SnackbarComponent</text>
</g>
<!-- SnackbarComponent&#45;&gt;SharedModule -->
<g id="edge2" class="edge">
<title>SnackbarComponent&#45;&gt;SharedModule</title>
<path fill="none" stroke="#000000" d="M477.5963,-122.027C477.5963,-138.3976 477.5963,-160 477.5963,-160 477.5963,-160 422.2642,-160 422.2642,-160"/>
<polygon fill="#000000" stroke="#000000" points="422.2642,-156.5001 412.2642,-160 422.2641,-163.5001 422.2642,-156.5001"/>
</g>
<!-- FormsModule  -->
<g id="node7" class="node">
<title>FormsModule </title>
<polygon fill="#fb8072" stroke="#000000" points="636.3283,-252 537.6717,-252 537.6717,-216 636.3283,-216 636.3283,-252"/>
<text text-anchor="middle" x="587" y="-229.8" font-family="Times,serif" font-size="14.00" fill="#000000">FormsModule </text>
</g>
<!-- SharedModule&#45;&gt;FormsModule  -->
<g id="edge6" class="edge">
<title>SharedModule&#45;&gt;FormsModule </title>
<path fill="none" stroke="#000000" stroke-dasharray="5,2" d="M412.4627,-178C468.8026,-178 553.1478,-178 553.1478,-178 553.1478,-178 553.1478,-205.973 553.1478,-205.973"/>
<polygon fill="#000000" stroke="#000000" points="549.6479,-205.973 553.1478,-215.973 556.6479,-205.973 549.6479,-205.973"/>
</g>
<!-- ReactiveFormsModule  -->
<g id="node8" class="node">
<title>ReactiveFormsModule </title>
<polygon fill="#fb8072" stroke="#000000" points="519.8045,-252 372.1955,-252 372.1955,-216 519.8045,-216 519.8045,-252"/>
<text text-anchor="middle" x="446" y="-229.8" font-family="Times,serif" font-size="14.00" fill="#000000">ReactiveFormsModule </text>
</g>
<!-- SharedModule&#45;&gt;ReactiveFormsModule  -->
<g id="edge7" class="edge">
<title>SharedModule&#45;&gt;ReactiveFormsModule </title>
<path fill="none" stroke="#000000" stroke-dasharray="5,2" d="M392.1545,-187.1061C392.1545,-187.1061 392.1545,-205.991 392.1545,-205.991"/>
<polygon fill="#000000" stroke="#000000" points="388.6545,-205.9909 392.1545,-215.991 395.6545,-205.991 388.6545,-205.9909"/>
</g>
<!-- InputComponent  -->
<g id="node9" class="node">
<title>InputComponent </title>
<polygon fill="#fb8072" stroke="#000000" points="354.3842,-252 239.6158,-252 239.6158,-216 354.3842,-216 354.3842,-252"/>
<text text-anchor="middle" x="297" y="-229.8" font-family="Times,serif" font-size="14.00" fill="#000000">InputComponent </text>
</g>
<!-- SharedModule&#45;&gt;InputComponent  -->
<g id="edge8" class="edge">
<title>SharedModule&#45;&gt;InputComponent </title>
<path fill="none" stroke="#000000" stroke-dasharray="5,2" d="M333.9904,-187.1061C333.9904,-187.1061 333.9904,-205.991 333.9904,-205.991"/>
<polygon fill="#000000" stroke="#000000" points="330.4904,-205.9909 333.9904,-215.991 337.4904,-205.991 330.4904,-205.9909"/>
</g>
<!-- SnackbarComponent  -->
<g id="node10" class="node">
<title>SnackbarComponent </title>
<polygon fill="#fb8072" stroke="#000000" points="221.4194,-252 84.5806,-252 84.5806,-216 221.4194,-216 221.4194,-252"/>
<text text-anchor="middle" x="153" y="-229.8" font-family="Times,serif" font-size="14.00" fill="#000000">SnackbarComponent </text>
</g>
<!-- SharedModule&#45;&gt;SnackbarComponent  -->
<g id="edge9" class="edge">
<title>SharedModule&#45;&gt;SnackbarComponent </title>
<path fill="none" stroke="#000000" stroke-dasharray="5,2" d="M313.5048,-178C266.7751,-178 203.813,-178 203.813,-178 203.813,-178 203.813,-205.973 203.813,-205.973"/>
<polygon fill="#000000" stroke="#000000" points="200.313,-205.973 203.813,-215.973 207.313,-205.973 200.313,-205.973"/>
</g>
<!-- FormsModule -->
<g id="node4" class="node">
<title>FormsModule</title>
<polygon fill="#8dd3c7" stroke="#000000" points="410.8288,-122 407.8288,-126 386.8288,-126 383.8288,-122 315.1712,-122 315.1712,-86 410.8288,-86 410.8288,-122"/>
<text text-anchor="middle" x="363" y="-99.8" font-family="Times,serif" font-size="14.00" fill="#000000">FormsModule</text>
</g>
<!-- FormsModule&#45;&gt;SharedModule -->
<g id="edge3" class="edge">
<title>FormsModule&#45;&gt;SharedModule</title>
<path fill="none" stroke="#000000" d="M363,-122.1061C363,-122.1061 363,-140.991 363,-140.991"/>
<polygon fill="#000000" stroke="#000000" points="359.5001,-140.9909 363,-150.991 366.5001,-140.991 359.5001,-140.9909"/>
</g>
<!-- CommonModule -->
<g id="node5" class="node">
<title>CommonModule</title>
<polygon fill="#8dd3c7" stroke="#000000" points="297.6681,-122 294.6681,-126 273.6681,-126 270.6681,-122 186.3319,-122 186.3319,-86 297.6681,-86 297.6681,-122"/>
<text text-anchor="middle" x="242" y="-99.8" font-family="Times,serif" font-size="14.00" fill="#000000">CommonModule</text>
</g>
<!-- CommonModule&#45;&gt;SharedModule -->
<g id="edge4" class="edge">
<title>CommonModule&#45;&gt;SharedModule</title>
<path fill="none" stroke="#000000" d="M268.821,-122.027C268.821,-138.3976 268.821,-160 268.821,-160 268.821,-160 303.7039,-160 303.7039,-160"/>
<polygon fill="#000000" stroke="#000000" points="303.7039,-163.5001 313.7039,-160 303.7039,-156.5001 303.7039,-163.5001"/>
</g>
<!-- ReactiveFormsModule -->
<g id="node6" class="node">
<title>ReactiveFormsModule</title>
<polygon fill="#8dd3c7" stroke="#000000" points="168.3047,-122 165.3047,-126 144.3047,-126 141.3047,-122 23.6953,-122 23.6953,-86 168.3047,-86 168.3047,-122"/>
<text text-anchor="middle" x="96" y="-99.8" font-family="Times,serif" font-size="14.00" fill="#000000">ReactiveFormsModule</text>
</g>
<!-- ReactiveFormsModule&#45;&gt;SharedModule -->
<g id="edge5" class="edge">
<title>ReactiveFormsModule&#45;&gt;SharedModule</title>
<path fill="none" stroke="#000000" d="M126.3463,-122.1061C126.3463,-141.3391 126.3463,-169 126.3463,-169 126.3463,-169 303.6777,-169 303.6777,-169"/>
<polygon fill="#000000" stroke="#000000" points="303.6777,-172.5001 313.6777,-169 303.6776,-165.5001 303.6777,-172.5001"/>
</g>
</g>
</svg>
