<?xml version="1.0" encoding="UTF-8" standalone="no"?>
<!DOCTYPE svg PUBLIC "-//W3C//DTD SVG 1.1//EN"
 "http://www.w3.org/Graphics/SVG/1.1/DTD/svg11.dtd">
<!-- Generated by graphviz version 2.40.1 (20161225.0304)
 -->
<!-- Title: dependencies Pages: 1 -->
<svg width="2792pt" height="284pt"
 viewBox="0.00 0.00 2792.00 284.00" xmlns="http://www.w3.org/2000/svg" xmlns:xlink="http://www.w3.org/1999/xlink">
<g id="graph0" class="graph" transform="scale(1 1) rotate(0) translate(4 280)">
<title>dependencies</title>
<polygon fill="#ffffff" stroke="transparent" points="-4,4 -4,-280 2788,-280 2788,4 -4,4"/>
<text text-anchor="start" x="1371.0091" y="-42.4" font-family="sans-serif" font-weight="bold" font-size="14.00" fill="#000000">Legend</text>
<polygon fill="#ffffb3" stroke="transparent" points="1158,-10 1158,-30 1178,-30 1178,-10 1158,-10"/>
<text text-anchor="start" x="1181.629" y="-15.4" font-family="sans-serif" font-size="14.00" fill="#000000"> &#160;Declarations</text>
<polygon fill="#8dd3c7" stroke="transparent" points="1271,-10 1271,-30 1291,-30 1291,-10 1271,-10"/>
<text text-anchor="start" x="1294.7251" y="-15.4" font-family="sans-serif" font-size="14.00" fill="#000000"> &#160;Module</text>
<polygon fill="#80b1d3" stroke="transparent" points="1357,-10 1357,-30 1377,-30 1377,-10 1357,-10"/>
<text text-anchor="start" x="1380.7812" y="-15.4" font-family="sans-serif" font-size="14.00" fill="#000000"> &#160;Bootstrap</text>
<polygon fill="#fdb462" stroke="transparent" points="1454,-10 1454,-30 1474,-30 1474,-10 1454,-10"/>
<text text-anchor="start" x="1477.6732" y="-15.4" font-family="sans-serif" font-size="14.00" fill="#000000"> &#160;Providers</text>
<polygon fill="#fb8072" stroke="transparent" points="1550,-10 1550,-30 1570,-30 1570,-10 1550,-10"/>
<text text-anchor="start" x="1573.7258" y="-15.4" font-family="sans-serif" font-size="14.00" fill="#000000"> &#160;Exports</text>
<g id="clust1" class="cluster">
<title>cluster_AppModule</title>
<polygon fill="none" stroke="#000000" stroke-dasharray="1,5" points="8,-70 8,-268 2776,-268 2776,-70 8,-70"/>
</g>
<g id="clust2" class="cluster">
<title>cluster_AppModule_declarations</title>
<polygon fill="none" stroke="#000000" points="1669,-78 1669,-130 2768,-130 2768,-78 1669,-78"/>
</g>
<g id="clust11" class="cluster">
<title>cluster_AppModule_imports</title>
<polygon fill="none" stroke="#000000" points="496,-78 496,-130 1661,-130 1661,-78 496,-78"/>
</g>
<g id="clust13" class="cluster">
<title>cluster_AppModule_bootstrap</title>
<polygon fill="none" stroke="#000000" points="1458,-208 1458,-260 1582,-260 1582,-208 1458,-208"/>
</g>
<g id="clust14" class="cluster">
<title>cluster_AppModule_providers</title>
<polygon fill="none" stroke="#000000" points="16,-78 16,-130 488,-130 488,-78 16,-78"/>
</g>
<!-- AppComponent -->
<g id="node1" class="node">
<title>AppComponent</title>
<polygon fill="#ffffb3" stroke="#000000" points="2759.9399,-122 2654.0601,-122 2654.0601,-86 2759.9399,-86 2759.9399,-122"/>
<text text-anchor="middle" x="2707" y="-99.8" font-family="Times,serif" font-size="14.00" fill="#000000">AppComponent</text>
</g>
<!-- AppModule -->
<g id="node9" class="node">
<title>AppModule</title>
<polygon fill="#8dd3c7" stroke="#000000" points="1561.6571,-187 1558.6571,-191 1537.6571,-191 1534.6571,-187 1478.3429,-187 1478.3429,-151 1561.6571,-151 1561.6571,-187"/>
<text text-anchor="middle" x="1520" y="-164.8" font-family="Times,serif" font-size="14.00" fill="#000000">AppModule</text>
</g>
<!-- AppComponent&#45;&gt;AppModule -->
<g id="edge1" class="edge">
<title>AppComponent&#45;&gt;AppModule</title>
<path fill="none" stroke="#000000" d="M2707,-122.3228C2707,-145.6602 2707,-183 2707,-183 2707,-183 1571.8973,-183 1571.8973,-183"/>
<polygon fill="#000000" stroke="#000000" points="1571.8973,-179.5001 1561.8973,-183 1571.8973,-186.5001 1571.8973,-179.5001"/>
</g>
<!-- HeaderComponent -->
<g id="node2" class="node">
<title>HeaderComponent</title>
<polygon fill="#ffffb3" stroke="#000000" points="2635.7437,-122 2514.2563,-122 2514.2563,-86 2635.7437,-86 2635.7437,-122"/>
<text text-anchor="middle" x="2575" y="-99.8" font-family="Times,serif" font-size="14.00" fill="#000000">HeaderComponent</text>
</g>
<!-- HeaderComponent&#45;&gt;AppModule -->
<g id="edge2" class="edge">
<title>HeaderComponent&#45;&gt;AppModule</title>
<path fill="none" stroke="#000000" d="M2575,-122.1554C2575,-144.3519 2575,-179 2575,-179 2575,-179 1571.6822,-179 1571.6822,-179"/>
<polygon fill="#000000" stroke="#000000" points="1571.6822,-175.5001 1561.6822,-179 1571.6822,-182.5001 1571.6822,-175.5001"/>
</g>
<!-- HomeComponent -->
<g id="node3" class="node">
<title>HomeComponent</title>
<polygon fill="#ffffb3" stroke="#000000" points="2495.5451,-122 2380.4549,-122 2380.4549,-86 2495.5451,-86 2495.5451,-122"/>
<text text-anchor="middle" x="2438" y="-99.8" font-family="Times,serif" font-size="14.00" fill="#000000">HomeComponent</text>
</g>
<!-- HomeComponent&#45;&gt;AppModule -->
<g id="edge3" class="edge">
<title>HomeComponent&#45;&gt;AppModule</title>
<path fill="none" stroke="#000000" d="M2438,-122.2843C2438,-143.3211 2438,-175 2438,-175 2438,-175 1571.83,-175 1571.83,-175"/>
<polygon fill="#000000" stroke="#000000" points="1571.83,-171.5001 1561.83,-175 1571.83,-178.5001 1571.83,-171.5001"/>
</g>
<!-- FooterComponent -->
<g id="node4" class="node">
<title>FooterComponent</title>
<polygon fill="#ffffb3" stroke="#000000" points="2361.8809,-122 2244.1191,-122 2244.1191,-86 2361.8809,-86 2361.8809,-122"/>
<text text-anchor="middle" x="2303" y="-99.8" font-family="Times,serif" font-size="14.00" fill="#000000">FooterComponent</text>
</g>
<!-- FooterComponent&#45;&gt;AppModule -->
<g id="edge4" class="edge">
<title>FooterComponent&#45;&gt;AppModule</title>
<path fill="none" stroke="#000000" d="M2303,-122.308C2303,-142.1455 2303,-171 2303,-171 2303,-171 1571.8207,-171 1571.8207,-171"/>
<polygon fill="#000000" stroke="#000000" points="1571.8207,-167.5001 1561.8207,-171 1571.8206,-174.5001 1571.8207,-167.5001"/>
</g>
<!-- PostComponent -->
<g id="node5" class="node">
<title>PostComponent</title>
<polygon fill="#ffffb3" stroke="#000000" points="2225.9512,-122 2120.0488,-122 2120.0488,-86 2225.9512,-86 2225.9512,-122"/>
<text text-anchor="middle" x="2173" y="-99.8" font-family="Times,serif" font-size="14.00" fill="#000000">PostComponent</text>
</g>
<!-- PostComponent&#45;&gt;AppModule -->
<g id="edge5" class="edge">
<title>PostComponent&#45;&gt;AppModule</title>
<path fill="none" stroke="#000000" d="M2173,-122.2222C2173,-140.8285 2173,-167 2173,-167 2173,-167 1571.8414,-167 1571.8414,-167"/>
<polygon fill="#000000" stroke="#000000" points="1571.8415,-163.5001 1561.8414,-167 1571.8414,-170.5001 1571.8415,-163.5001"/>
</g>
<!-- PostPageComponent -->
<g id="node6" class="node">
<title>PostPageComponent</title>
<polygon fill="#ffffb3" stroke="#000000" points="2102.1624,-122 1969.8376,-122 1969.8376,-86 2102.1624,-86 2102.1624,-122"/>
<text text-anchor="middle" x="2036" y="-99.8" font-family="Times,serif" font-size="14.00" fill="#000000">PostPageComponent</text>
</g>
<!-- PostPageComponent&#45;&gt;AppModule -->
<g id="edge6" class="edge">
<title>PostPageComponent&#45;&gt;AppModule</title>
<path fill="none" stroke="#000000" d="M2036,-122.0225C2036,-139.3734 2036,-163 2036,-163 2036,-163 1571.7894,-163 1571.7894,-163"/>
<polygon fill="#000000" stroke="#000000" points="1571.7894,-159.5001 1561.7894,-163 1571.7893,-166.5001 1571.7894,-159.5001"/>
</g>
<!-- LoginComponent -->
<g id="node7" class="node">
<title>LoginComponent</title>
<polygon fill="#ffffb3" stroke="#000000" points="1951.2758,-122 1836.7242,-122 1836.7242,-86 1951.2758,-86 1951.2758,-122"/>
<text text-anchor="middle" x="1894" y="-99.8" font-family="Times,serif" font-size="14.00" fill="#000000">LoginComponent</text>
</g>
<!-- LoginComponent&#45;&gt;AppModule -->
<g id="edge7" class="edge">
<title>LoginComponent&#45;&gt;AppModule</title>
<path fill="none" stroke="#000000" d="M1894,-122.0091C1894,-138.0494 1894,-159 1894,-159 1894,-159 1571.8139,-159 1571.8139,-159"/>
<polygon fill="#000000" stroke="#000000" points="1571.8139,-155.5001 1561.8139,-159 1571.8139,-162.5001 1571.8139,-155.5001"/>
</g>
<!-- PostCreateComponent -->
<g id="node8" class="node">
<title>PostCreateComponent</title>
<polygon fill="#ffffb3" stroke="#000000" points="1818.9818,-122 1677.0182,-122 1677.0182,-86 1818.9818,-86 1818.9818,-122"/>
<text text-anchor="middle" x="1748" y="-99.8" font-family="Times,serif" font-size="14.00" fill="#000000">PostCreateComponent</text>
</g>
<!-- PostCreateComponent&#45;&gt;AppModule -->
<g id="edge8" class="edge">
<title>PostCreateComponent&#45;&gt;AppModule</title>
<path fill="none" stroke="#000000" d="M1748,-122.1243C1748,-136.7832 1748,-155 1748,-155 1748,-155 1571.8187,-155 1571.8187,-155"/>
<polygon fill="#000000" stroke="#000000" points="1571.8187,-151.5001 1561.8187,-155 1571.8187,-158.5001 1571.8187,-151.5001"/>
</g>
<!-- AppComponent  -->
<g id="node17" class="node">
<title>AppComponent </title>
<polygon fill="#80b1d3" stroke="#000000" points="1574.439,-252 1465.561,-252 1465.561,-216 1574.439,-216 1574.439,-252"/>
<text text-anchor="middle" x="1520" y="-229.8" font-family="Times,serif" font-size="14.00" fill="#000000">AppComponent </text>
</g>
<!-- AppModule&#45;&gt;AppComponent  -->
<g id="edge16" class="edge">
<title>AppModule&#45;&gt;AppComponent </title>
<path fill="none" stroke="#000000" stroke-dasharray="1,5" d="M1520,-187.1061C1520,-187.1061 1520,-205.991 1520,-205.991"/>
<polygon fill="#000000" stroke="#000000" points="1516.5001,-205.9909 1520,-215.991 1523.5001,-205.991 1516.5001,-205.9909"/>
</g>
<!-- BrowserModule -->
<g id="node10" class="node">
<title>BrowserModule</title>
<polygon fill="#8dd3c7" stroke="#000000" points="1653.4734,-122 1650.4734,-126 1629.4734,-126 1626.4734,-122 1546.5266,-122 1546.5266,-86 1653.4734,-86 1653.4734,-122"/>
<text text-anchor="middle" x="1600" y="-99.8" font-family="Times,serif" font-size="14.00" fill="#000000">BrowserModule</text>
</g>
<!-- BrowserModule&#45;&gt;AppModule -->
<g id="edge9" class="edge">
<title>BrowserModule&#45;&gt;AppModule</title>
<path fill="none" stroke="#000000" d="M1554.1708,-122.1061C1554.1708,-122.1061 1554.1708,-140.991 1554.1708,-140.991"/>
<polygon fill="#000000" stroke="#000000" points="1550.6708,-140.9909 1554.1708,-150.991 1557.6708,-140.991 1550.6708,-140.9909"/>
</g>
<!-- RouterModule.forRoot(args) -->
<g id="node11" class="node">
<title>RouterModule.forRoot(args)</title>
<polygon fill="#8dd3c7" stroke="#000000" points="1528.8419,-122 1525.8419,-126 1504.8419,-126 1501.8419,-122 1351.1581,-122 1351.1581,-86 1528.8419,-86 1528.8419,-122"/>
<text text-anchor="middle" x="1440" y="-99.8" font-family="Times,serif" font-size="14.00" fill="#000000">RouterModule.forRoot(args)</text>
</g>
<!-- RouterModule.forRoot(args)&#45;&gt;AppModule -->
<g id="edge10" class="edge">
<title>RouterModule.forRoot(args)&#45;&gt;AppModule</title>
<path fill="none" stroke="#000000" d="M1503.4213,-122.1061C1503.4213,-122.1061 1503.4213,-140.991 1503.4213,-140.991"/>
<polygon fill="#000000" stroke="#000000" points="1499.9214,-140.9909 1503.4213,-150.991 1506.9214,-140.991 1499.9214,-140.9909"/>
</g>
<!-- HttpClientModule -->
<g id="node12" class="node">
<title>HttpClientModule</title>
<polygon fill="#8dd3c7" stroke="#000000" points="1333.1611,-122 1330.1611,-126 1309.1611,-126 1306.1611,-122 1214.8389,-122 1214.8389,-86 1333.1611,-86 1333.1611,-122"/>
<text text-anchor="middle" x="1274" y="-99.8" font-family="Times,serif" font-size="14.00" fill="#000000">HttpClientModule</text>
</g>
<!-- HttpClientModule&#45;&gt;AppModule -->
<g id="edge11" class="edge">
<title>HttpClientModule&#45;&gt;AppModule</title>
<path fill="none" stroke="#000000" d="M1274,-122.1243C1274,-136.7832 1274,-155 1274,-155 1274,-155 1468.2695,-155 1468.2695,-155"/>
<polygon fill="#000000" stroke="#000000" points="1468.2695,-158.5001 1478.2695,-155 1468.2694,-151.5001 1468.2695,-158.5001"/>
</g>
<!-- FroalaEditorModule.forRoot() -->
<g id="node13" class="node">
<title>FroalaEditorModule.forRoot()</title>
<polygon fill="#8dd3c7" stroke="#000000" points="1196.1771,-122 1193.1771,-126 1172.1771,-126 1169.1771,-122 1009.8229,-122 1009.8229,-86 1196.1771,-86 1196.1771,-122"/>
<text text-anchor="middle" x="1103" y="-99.8" font-family="Times,serif" font-size="14.00" fill="#000000">FroalaEditorModule.forRoot()</text>
</g>
<!-- FroalaEditorModule.forRoot()&#45;&gt;AppModule -->
<g id="edge12" class="edge">
<title>FroalaEditorModule.forRoot()&#45;&gt;AppModule</title>
<path fill="none" stroke="#000000" d="M1103,-122.0091C1103,-138.0494 1103,-159 1103,-159 1103,-159 1468.1072,-159 1468.1072,-159"/>
<polygon fill="#000000" stroke="#000000" points="1468.1072,-162.5001 1478.1072,-159 1468.1071,-155.5001 1468.1072,-162.5001"/>
</g>
<!-- FroalaViewModule.forRoot() -->
<g id="node14" class="node">
<title>FroalaViewModule.forRoot()</title>
<polygon fill="#8dd3c7" stroke="#000000" points="992.0008,-122 989.0008,-126 968.0008,-126 965.0008,-122 809.9992,-122 809.9992,-86 992.0008,-86 992.0008,-122"/>
<text text-anchor="middle" x="901" y="-99.8" font-family="Times,serif" font-size="14.00" fill="#000000">FroalaViewModule.forRoot()</text>
</g>
<!-- FroalaViewModule.forRoot()&#45;&gt;AppModule -->
<g id="edge13" class="edge">
<title>FroalaViewModule.forRoot()&#45;&gt;AppModule</title>
<path fill="none" stroke="#000000" d="M901,-122.0225C901,-139.3734 901,-163 901,-163 901,-163 1467.9403,-163 1467.9403,-163"/>
<polygon fill="#000000" stroke="#000000" points="1467.9403,-166.5001 1477.9403,-163 1467.9402,-159.5001 1467.9403,-166.5001"/>
</g>
<!-- SharedModule -->
<g id="node15" class="node">
<title>SharedModule</title>
<polygon fill="#8dd3c7" stroke="#000000" points="792.4231,-122 789.4231,-126 768.4231,-126 765.4231,-122 693.5769,-122 693.5769,-86 792.4231,-86 792.4231,-122"/>
<text text-anchor="middle" x="743" y="-99.8" font-family="Times,serif" font-size="14.00" fill="#000000">SharedModule</text>
</g>
<!-- SharedModule&#45;&gt;AppModule -->
<g id="edge14" class="edge">
<title>SharedModule&#45;&gt;AppModule</title>
<path fill="none" stroke="#000000" d="M743,-122.2222C743,-140.8285 743,-167 743,-167 743,-167 1468.2251,-167 1468.2251,-167"/>
<polygon fill="#000000" stroke="#000000" points="1468.2251,-170.5001 1478.2251,-167 1468.2251,-163.5001 1468.2251,-170.5001"/>
</g>
<!-- BrowserAnimationsModule -->
<g id="node16" class="node">
<title>BrowserAnimationsModule</title>
<polygon fill="#8dd3c7" stroke="#000000" points="676.3019,-122 673.3019,-126 652.3019,-126 649.3019,-122 503.6981,-122 503.6981,-86 676.3019,-86 676.3019,-122"/>
<text text-anchor="middle" x="590" y="-99.8" font-family="Times,serif" font-size="14.00" fill="#000000">BrowserAnimationsModule</text>
</g>
<!-- BrowserAnimationsModule&#45;&gt;AppModule -->
<g id="edge15" class="edge">
<title>BrowserAnimationsModule&#45;&gt;AppModule</title>
<path fill="none" stroke="#000000" d="M590,-122.308C590,-142.1455 590,-171 590,-171 590,-171 1468.2331,-171 1468.2331,-171"/>
<polygon fill="#000000" stroke="#000000" points="1468.2332,-174.5001 1478.2331,-171 1468.2331,-167.5001 1468.2332,-174.5001"/>
</g>
<!-- PostsService -->
<g id="node18" class="node">
<title>PostsService</title>
<ellipse fill="#fdb462" stroke="#000000" cx="420" cy="-104" rx="60.2672" ry="18"/>
<text text-anchor="middle" x="420" y="-99.8" font-family="Times,serif" font-size="14.00" fill="#000000">PostsService</text>
</g>
<!-- PostsService&#45;&gt;AppModule -->
<g id="edge17" class="edge">
<title>PostsService&#45;&gt;AppModule</title>
<path fill="none" stroke="#000000" d="M420,-122.2843C420,-143.3211 420,-175 420,-175 420,-175 1468.2219,-175 1468.2219,-175"/>
<polygon fill="#000000" stroke="#000000" points="1468.2219,-178.5001 1478.2219,-175 1468.2219,-171.5001 1468.2219,-178.5001"/>
</g>
<!-- LoginService -->
<g id="node19" class="node">
<title>LoginService</title>
<ellipse fill="#fdb462" stroke="#000000" cx="279" cy="-104" rx="63.1209" ry="18"/>
<text text-anchor="middle" x="279" y="-99.8" font-family="Times,serif" font-size="14.00" fill="#000000">LoginService</text>
</g>
<!-- LoginService&#45;&gt;AppModule -->
<g id="edge18" class="edge">
<title>LoginService&#45;&gt;AppModule</title>
<path fill="none" stroke="#000000" d="M279,-122.1554C279,-144.3519 279,-179 279,-179 279,-179 1467.9986,-179 1467.9986,-179"/>
<polygon fill="#000000" stroke="#000000" points="1467.9986,-182.5001 1477.9986,-179 1467.9986,-175.5001 1467.9986,-182.5001"/>
</g>
<!-- NotificationService -->
<g id="node20" class="node">
<title>NotificationService</title>
<ellipse fill="#fdb462" stroke="#000000" cx="111" cy="-104" rx="86.8107" ry="18"/>
<text text-anchor="middle" x="111" y="-99.8" font-family="Times,serif" font-size="14.00" fill="#000000">NotificationService</text>
</g>
<!-- NotificationService&#45;&gt;AppModule -->
<g id="edge19" class="edge">
<title>NotificationService&#45;&gt;AppModule</title>
<path fill="none" stroke="#000000" d="M111,-122.3228C111,-145.6602 111,-183 111,-183 111,-183 1468.2137,-183 1468.2137,-183"/>
<polygon fill="#000000" stroke="#000000" points="1468.2137,-186.5001 1478.2137,-183 1468.2137,-179.5001 1468.2137,-186.5001"/>
</g>
</g>
</svg>
