<?xml version="1.0" encoding="UTF-8" standalone="no"?>
<!DOCTYPE svg PUBLIC "-//W3C//DTD SVG 1.1//EN"
 "http://www.w3.org/Graphics/SVG/1.1/DTD/svg11.dtd">
<!-- Generated by graphviz version 2.40.1 (20161225.0304)
 -->
<!-- Title: dependencies Pages: 1 -->
<svg width="2792pt" height="360pt"
 viewBox="0.00 0.00 2792.00 360.00" xmlns="http://www.w3.org/2000/svg" xmlns:xlink="http://www.w3.org/1999/xlink">
<g id="graph0" class="graph" transform="scale(1 1) rotate(0) translate(4 356)">
<title>dependencies</title>
<polygon fill="#ffffff" stroke="transparent" points="-4,4 -4,-356 2788,-356 2788,4 -4,4"/>
<text text-anchor="start" x="1371.0091" y="-42.4" font-family="sans-serif" font-weight="bold" font-size="14.00" fill="#000000">Legend</text>
<polygon fill="#ffffb3" stroke="transparent" points="1158,-10 1158,-30 1178,-30 1178,-10 1158,-10"/>
<text text-anchor="start" x="1181.629" y="-15.4" font-family="sans-serif" font-size="14.00" fill="#000000"> &#160;Declarations</text>
<polygon fill="#8dd3c7" stroke="transparent" points="1271,-10 1271,-30 1291,-30 1291,-10 1271,-10"/>
<text text-anchor="start" x="1294.7251" y="-15.4" font-family="sans-serif" font-size="14.00" fill="#000000"> &#160;Module</text>
<polygon fill="#80b1d3" stroke="transparent" points="1357,-10 1357,-30 1377,-30 1377,-10 1357,-10"/>
<text text-anchor="start" x="1380.7812" y="-15.4" font-family="sans-serif" font-size="14.00" fill="#000000"> &#160;Bootstrap</text>
<polygon fill="#fdb462" stroke="transparent" points="1454,-10 1454,-30 1474,-30 1474,-10 1454,-10"/>
<text text-anchor="start" x="1477.6732" y="-15.4" font-family="sans-serif" font-size="14.00" fill="#000000"> &#160;Providers</text>
<polygon fill="#fb8072" stroke="transparent" points="1550,-10 1550,-30 1570,-30 1570,-10 1550,-10"/>
<text text-anchor="start" x="1573.7258" y="-15.4" font-family="sans-serif" font-size="14.00" fill="#000000"> &#160;Exports</text>
<g id="clust1" class="cluster">
<title>cluster_AppModule</title>
<polygon fill="none" stroke="#000000" stroke-dasharray="1,5" points="8,-146 8,-344 2776,-344 2776,-146 8,-146"/>
</g>
<g id="clust2" class="cluster">
<title>cluster_AppModule_declarations</title>
<polygon fill="none" stroke="#000000" points="1669,-154 1669,-206 2768,-206 2768,-154 1669,-154"/>
</g>
<g id="clust11" class="cluster">
<title>cluster_AppModule_imports</title>
<polygon fill="none" stroke="#000000" points="496,-154 496,-206 1661,-206 1661,-154 496,-154"/>
</g>
<g id="clust13" class="cluster">
<title>cluster_AppModule_bootstrap</title>
<polygon fill="none" stroke="#000000" points="1458,-284 1458,-336 1582,-336 1582,-284 1458,-284"/>
</g>
<g id="clust14" class="cluster">
<title>cluster_AppModule_providers</title>
<polygon fill="none" stroke="#000000" points="16,-154 16,-206 488,-206 488,-154 16,-154"/>
</g>
<g id="clust15" class="cluster">
<title>cluster_SharedModule</title>
<polygon fill="none" stroke="#000000" stroke-dasharray="1,5" points="80,-70 80,-138 1360,-138 1360,-70 80,-70"/>
</g>
<g id="clust16" class="cluster">
<title>cluster_SharedModule_declarations</title>
<polygon fill="none" stroke="#000000" points="1074,-78 1074,-130 1352,-130 1352,-78 1074,-78"/>
</g>
<g id="clust19" class="cluster">
<title>cluster_SharedModule_imports</title>
<polygon fill="none" stroke="#000000" points="663,-78 663,-130 1066,-130 1066,-78 663,-78"/>
</g>
<g id="clust20" class="cluster">
<title>cluster_SharedModule_exports</title>
<polygon fill="none" stroke="#000000" points="88,-78 88,-130 655,-130 655,-78 88,-78"/>
</g>
<!-- AppComponent -->
<g id="node1" class="node">
<title>AppComponent</title>
<polygon fill="#ffffb3" stroke="#000000" points="2759.9399,-198 2654.0601,-198 2654.0601,-162 2759.9399,-162 2759.9399,-198"/>
<text text-anchor="middle" x="2707" y="-175.8" font-family="Times,serif" font-size="14.00" fill="#000000">AppComponent</text>
</g>
<!-- AppModule -->
<g id="node9" class="node">
<title>AppModule</title>
<polygon fill="#8dd3c7" stroke="#000000" points="1561.6571,-263 1558.6571,-267 1537.6571,-267 1534.6571,-263 1478.3429,-263 1478.3429,-227 1561.6571,-227 1561.6571,-263"/>
<text text-anchor="middle" x="1520" y="-240.8" font-family="Times,serif" font-size="14.00" fill="#000000">AppModule</text>
</g>
<!-- AppComponent&#45;&gt;AppModule -->
<g id="edge1" class="edge">
<title>AppComponent&#45;&gt;AppModule</title>
<path fill="none" stroke="#000000" d="M2707,-198.3228C2707,-221.6602 2707,-259 2707,-259 2707,-259 1571.8973,-259 1571.8973,-259"/>
<polygon fill="#000000" stroke="#000000" points="1571.8973,-255.5001 1561.8973,-259 1571.8973,-262.5001 1571.8973,-255.5001"/>
</g>
<!-- HeaderComponent -->
<g id="node2" class="node">
<title>HeaderComponent</title>
<polygon fill="#ffffb3" stroke="#000000" points="2635.7437,-198 2514.2563,-198 2514.2563,-162 2635.7437,-162 2635.7437,-198"/>
<text text-anchor="middle" x="2575" y="-175.8" font-family="Times,serif" font-size="14.00" fill="#000000">HeaderComponent</text>
</g>
<!-- HeaderComponent&#45;&gt;AppModule -->
<g id="edge2" class="edge">
<title>HeaderComponent&#45;&gt;AppModule</title>
<path fill="none" stroke="#000000" d="M2575,-198.1554C2575,-220.3519 2575,-255 2575,-255 2575,-255 1571.6822,-255 1571.6822,-255"/>
<polygon fill="#000000" stroke="#000000" points="1571.6822,-251.5001 1561.6822,-255 1571.6822,-258.5001 1571.6822,-251.5001"/>
</g>
<!-- HomeComponent -->
<g id="node3" class="node">
<title>HomeComponent</title>
<polygon fill="#ffffb3" stroke="#000000" points="2495.5451,-198 2380.4549,-198 2380.4549,-162 2495.5451,-162 2495.5451,-198"/>
<text text-anchor="middle" x="2438" y="-175.8" font-family="Times,serif" font-size="14.00" fill="#000000">HomeComponent</text>
</g>
<!-- HomeComponent&#45;&gt;AppModule -->
<g id="edge3" class="edge">
<title>HomeComponent&#45;&gt;AppModule</title>
<path fill="none" stroke="#000000" d="M2438,-198.2843C2438,-219.3211 2438,-251 2438,-251 2438,-251 1571.83,-251 1571.83,-251"/>
<polygon fill="#000000" stroke="#000000" points="1571.83,-247.5001 1561.83,-251 1571.83,-254.5001 1571.83,-247.5001"/>
</g>
<!-- FooterComponent -->
<g id="node4" class="node">
<title>FooterComponent</title>
<polygon fill="#ffffb3" stroke="#000000" points="2361.8809,-198 2244.1191,-198 2244.1191,-162 2361.8809,-162 2361.8809,-198"/>
<text text-anchor="middle" x="2303" y="-175.8" font-family="Times,serif" font-size="14.00" fill="#000000">FooterComponent</text>
</g>
<!-- FooterComponent&#45;&gt;AppModule -->
<g id="edge4" class="edge">
<title>FooterComponent&#45;&gt;AppModule</title>
<path fill="none" stroke="#000000" d="M2303,-198.308C2303,-218.1455 2303,-247 2303,-247 2303,-247 1571.8207,-247 1571.8207,-247"/>
<polygon fill="#000000" stroke="#000000" points="1571.8207,-243.5001 1561.8207,-247 1571.8206,-250.5001 1571.8207,-243.5001"/>
</g>
<!-- PostComponent -->
<g id="node5" class="node">
<title>PostComponent</title>
<polygon fill="#ffffb3" stroke="#000000" points="2225.9512,-198 2120.0488,-198 2120.0488,-162 2225.9512,-162 2225.9512,-198"/>
<text text-anchor="middle" x="2173" y="-175.8" font-family="Times,serif" font-size="14.00" fill="#000000">PostComponent</text>
</g>
<!-- PostComponent&#45;&gt;AppModule -->
<g id="edge5" class="edge">
<title>PostComponent&#45;&gt;AppModule</title>
<path fill="none" stroke="#000000" d="M2173,-198.2222C2173,-216.8285 2173,-243 2173,-243 2173,-243 1571.8414,-243 1571.8414,-243"/>
<polygon fill="#000000" stroke="#000000" points="1571.8415,-239.5001 1561.8414,-243 1571.8414,-246.5001 1571.8415,-239.5001"/>
</g>
<!-- PostPageComponent -->
<g id="node6" class="node">
<title>PostPageComponent</title>
<polygon fill="#ffffb3" stroke="#000000" points="2102.1624,-198 1969.8376,-198 1969.8376,-162 2102.1624,-162 2102.1624,-198"/>
<text text-anchor="middle" x="2036" y="-175.8" font-family="Times,serif" font-size="14.00" fill="#000000">PostPageComponent</text>
</g>
<!-- PostPageComponent&#45;&gt;AppModule -->
<g id="edge6" class="edge">
<title>PostPageComponent&#45;&gt;AppModule</title>
<path fill="none" stroke="#000000" d="M2036,-198.0225C2036,-215.3734 2036,-239 2036,-239 2036,-239 1571.7894,-239 1571.7894,-239"/>
<polygon fill="#000000" stroke="#000000" points="1571.7894,-235.5001 1561.7894,-239 1571.7893,-242.5001 1571.7894,-235.5001"/>
</g>
<!-- LoginComponent -->
<g id="node7" class="node">
<title>LoginComponent</title>
<polygon fill="#ffffb3" stroke="#000000" points="1951.2758,-198 1836.7242,-198 1836.7242,-162 1951.2758,-162 1951.2758,-198"/>
<text text-anchor="middle" x="1894" y="-175.8" font-family="Times,serif" font-size="14.00" fill="#000000">LoginComponent</text>
</g>
<!-- LoginComponent&#45;&gt;AppModule -->
<g id="edge7" class="edge">
<title>LoginComponent&#45;&gt;AppModule</title>
<path fill="none" stroke="#000000" d="M1894,-198.0091C1894,-214.0494 1894,-235 1894,-235 1894,-235 1571.8139,-235 1571.8139,-235"/>
<polygon fill="#000000" stroke="#000000" points="1571.8139,-231.5001 1561.8139,-235 1571.8139,-238.5001 1571.8139,-231.5001"/>
</g>
<!-- PostCreateComponent -->
<g id="node8" class="node">
<title>PostCreateComponent</title>
<polygon fill="#ffffb3" stroke="#000000" points="1818.9818,-198 1677.0182,-198 1677.0182,-162 1818.9818,-162 1818.9818,-198"/>
<text text-anchor="middle" x="1748" y="-175.8" font-family="Times,serif" font-size="14.00" fill="#000000">PostCreateComponent</text>
</g>
<!-- PostCreateComponent&#45;&gt;AppModule -->
<g id="edge8" class="edge">
<title>PostCreateComponent&#45;&gt;AppModule</title>
<path fill="none" stroke="#000000" d="M1748,-198.1243C1748,-212.7832 1748,-231 1748,-231 1748,-231 1571.8187,-231 1571.8187,-231"/>
<polygon fill="#000000" stroke="#000000" points="1571.8187,-227.5001 1561.8187,-231 1571.8187,-234.5001 1571.8187,-227.5001"/>
</g>
<!-- AppComponent  -->
<g id="node17" class="node">
<title>AppComponent </title>
<polygon fill="#80b1d3" stroke="#000000" points="1574.439,-328 1465.561,-328 1465.561,-292 1574.439,-292 1574.439,-328"/>
<text text-anchor="middle" x="1520" y="-305.8" font-family="Times,serif" font-size="14.00" fill="#000000">AppComponent </text>
</g>
<!-- AppModule&#45;&gt;AppComponent  -->
<g id="edge16" class="edge">
<title>AppModule&#45;&gt;AppComponent </title>
<path fill="none" stroke="#000000" stroke-dasharray="1,5" d="M1520,-263.1061C1520,-263.1061 1520,-281.991 1520,-281.991"/>
<polygon fill="#000000" stroke="#000000" points="1516.5001,-281.9909 1520,-291.991 1523.5001,-281.991 1516.5001,-281.9909"/>
</g>
<!-- BrowserModule -->
<g id="node10" class="node">
<title>BrowserModule</title>
<polygon fill="#8dd3c7" stroke="#000000" points="1653.4734,-198 1650.4734,-202 1629.4734,-202 1626.4734,-198 1546.5266,-198 1546.5266,-162 1653.4734,-162 1653.4734,-198"/>
<text text-anchor="middle" x="1600" y="-175.8" font-family="Times,serif" font-size="14.00" fill="#000000">BrowserModule</text>
</g>
<!-- BrowserModule&#45;&gt;AppModule -->
<g id="edge9" class="edge">
<title>BrowserModule&#45;&gt;AppModule</title>
<path fill="none" stroke="#000000" d="M1554.1708,-198.1061C1554.1708,-198.1061 1554.1708,-216.991 1554.1708,-216.991"/>
<polygon fill="#000000" stroke="#000000" points="1550.6708,-216.9909 1554.1708,-226.991 1557.6708,-216.991 1550.6708,-216.9909"/>
</g>
<!-- RouterModule.forRoot(args) -->
<g id="node11" class="node">
<title>RouterModule.forRoot(args)</title>
<polygon fill="#8dd3c7" stroke="#000000" points="1528.8419,-198 1525.8419,-202 1504.8419,-202 1501.8419,-198 1351.1581,-198 1351.1581,-162 1528.8419,-162 1528.8419,-198"/>
<text text-anchor="middle" x="1440" y="-175.8" font-family="Times,serif" font-size="14.00" fill="#000000">RouterModule.forRoot(args)</text>
</g>
<!-- RouterModule.forRoot(args)&#45;&gt;AppModule -->
<g id="edge10" class="edge">
<title>RouterModule.forRoot(args)&#45;&gt;AppModule</title>
<path fill="none" stroke="#000000" d="M1503.4213,-198.1061C1503.4213,-198.1061 1503.4213,-216.991 1503.4213,-216.991"/>
<polygon fill="#000000" stroke="#000000" points="1499.9214,-216.9909 1503.4213,-226.991 1506.9214,-216.991 1499.9214,-216.9909"/>
</g>
<!-- HttpClientModule -->
<g id="node12" class="node">
<title>HttpClientModule</title>
<polygon fill="#8dd3c7" stroke="#000000" points="1333.1611,-198 1330.1611,-202 1309.1611,-202 1306.1611,-198 1214.8389,-198 1214.8389,-162 1333.1611,-162 1333.1611,-198"/>
<text text-anchor="middle" x="1274" y="-175.8" font-family="Times,serif" font-size="14.00" fill="#000000">HttpClientModule</text>
</g>
<!-- HttpClientModule&#45;&gt;AppModule -->
<g id="edge11" class="edge">
<title>HttpClientModule&#45;&gt;AppModule</title>
<path fill="none" stroke="#000000" d="M1274,-198.1243C1274,-212.7832 1274,-231 1274,-231 1274,-231 1468.2695,-231 1468.2695,-231"/>
<polygon fill="#000000" stroke="#000000" points="1468.2695,-234.5001 1478.2695,-231 1468.2694,-227.5001 1468.2695,-234.5001"/>
</g>
<!-- FroalaEditorModule.forRoot() -->
<g id="node13" class="node">
<title>FroalaEditorModule.forRoot()</title>
<polygon fill="#8dd3c7" stroke="#000000" points="1196.1771,-198 1193.1771,-202 1172.1771,-202 1169.1771,-198 1009.8229,-198 1009.8229,-162 1196.1771,-162 1196.1771,-198"/>
<text text-anchor="middle" x="1103" y="-175.8" font-family="Times,serif" font-size="14.00" fill="#000000">FroalaEditorModule.forRoot()</text>
</g>
<!-- FroalaEditorModule.forRoot()&#45;&gt;AppModule -->
<g id="edge12" class="edge">
<title>FroalaEditorModule.forRoot()&#45;&gt;AppModule</title>
<path fill="none" stroke="#000000" d="M1103,-198.0091C1103,-214.0494 1103,-235 1103,-235 1103,-235 1468.1072,-235 1468.1072,-235"/>
<polygon fill="#000000" stroke="#000000" points="1468.1072,-238.5001 1478.1072,-235 1468.1071,-231.5001 1468.1072,-238.5001"/>
</g>
<!-- FroalaViewModule.forRoot() -->
<g id="node14" class="node">
<title>FroalaViewModule.forRoot()</title>
<polygon fill="#8dd3c7" stroke="#000000" points="992.0008,-198 989.0008,-202 968.0008,-202 965.0008,-198 809.9992,-198 809.9992,-162 992.0008,-162 992.0008,-198"/>
<text text-anchor="middle" x="901" y="-175.8" font-family="Times,serif" font-size="14.00" fill="#000000">FroalaViewModule.forRoot()</text>
</g>
<!-- FroalaViewModule.forRoot()&#45;&gt;AppModule -->
<g id="edge13" class="edge">
<title>FroalaViewModule.forRoot()&#45;&gt;AppModule</title>
<path fill="none" stroke="#000000" d="M901,-198.0225C901,-215.3734 901,-239 901,-239 901,-239 1467.9403,-239 1467.9403,-239"/>
<polygon fill="#000000" stroke="#000000" points="1467.9403,-242.5001 1477.9403,-239 1467.9402,-235.5001 1467.9403,-242.5001"/>
</g>
<!-- SharedModule -->
<g id="node15" class="node">
<title>SharedModule</title>
<polygon fill="#8dd3c7" stroke="#000000" points="792.4231,-198 789.4231,-202 768.4231,-202 765.4231,-198 693.5769,-198 693.5769,-162 792.4231,-162 792.4231,-198"/>
<text text-anchor="middle" x="743" y="-175.8" font-family="Times,serif" font-size="14.00" fill="#000000">SharedModule</text>
</g>
<!-- SharedModule&#45;&gt;AppModule -->
<g id="edge14" class="edge">
<title>SharedModule&#45;&gt;AppModule</title>
<path fill="none" stroke="#000000" d="M743,-198.2222C743,-216.8285 743,-243 743,-243 743,-243 1468.2251,-243 1468.2251,-243"/>
<polygon fill="#000000" stroke="#000000" points="1468.2251,-246.5001 1478.2251,-243 1468.2251,-239.5001 1468.2251,-246.5001"/>
</g>
<!-- FormsModule  -->
<g id="node26" class="node">
<title>FormsModule </title>
<polygon fill="#fb8072" stroke="#000000" points="647.3283,-122 548.6717,-122 548.6717,-86 647.3283,-86 647.3283,-122"/>
<text text-anchor="middle" x="598" y="-99.8" font-family="Times,serif" font-size="14.00" fill="#000000">FormsModule </text>
</g>
<!-- SharedModule&#45;&gt;FormsModule  -->
<g id="edge25" class="edge">
<title>SharedModule&#45;&gt;FormsModule </title>
<path fill="none" stroke="#000000" stroke-dasharray="5,2" d="M733.1578,-161.68C733.1578,-153.2117 733.1578,-145 733.1578,-145 733.1578,-145 598,-145 598,-145 598,-145 598,-132.1025 598,-132.1025"/>
<polygon fill="#000000" stroke="#000000" points="601.5001,-132.1025 598,-122.1025 594.5001,-132.1026 601.5001,-132.1025"/>
</g>
<!-- ReactiveFormsModule  -->
<g id="node27" class="node">
<title>ReactiveFormsModule </title>
<polygon fill="#fb8072" stroke="#000000" points="530.8045,-122 383.1955,-122 383.1955,-86 530.8045,-86 530.8045,-122"/>
<text text-anchor="middle" x="457" y="-99.8" font-family="Times,serif" font-size="14.00" fill="#000000">ReactiveFormsModule </text>
</g>
<!-- SharedModule&#45;&gt;ReactiveFormsModule  -->
<g id="edge26" class="edge">
<title>SharedModule&#45;&gt;ReactiveFormsModule </title>
<path fill="none" stroke="#000000" stroke-dasharray="5,2" d="M723.3156,-161.9672C723.3156,-155.1474 723.3156,-149 723.3156,-149 723.3156,-149 517.3757,-149 517.3757,-149 517.3757,-149 517.3757,-132.0439 517.3757,-132.0439"/>
<polygon fill="#000000" stroke="#000000" points="520.8758,-132.0439 517.3757,-122.0439 513.8758,-132.044 520.8758,-132.0439"/>
</g>
<!-- InputComponent  -->
<g id="node28" class="node">
<title>InputComponent </title>
<polygon fill="#fb8072" stroke="#000000" points="365.3842,-122 250.6158,-122 250.6158,-86 365.3842,-86 365.3842,-122"/>
<text text-anchor="middle" x="308" y="-99.8" font-family="Times,serif" font-size="14.00" fill="#000000">InputComponent </text>
</g>
<!-- SharedModule&#45;&gt;InputComponent  -->
<g id="edge27" class="edge">
<title>SharedModule&#45;&gt;InputComponent </title>
<path fill="none" stroke="#000000" stroke-dasharray="5,2" d="M713.4733,-161.9421C713.4733,-157.5055 713.4733,-154 713.4733,-154 713.4733,-154 350.8385,-154 350.8385,-154 350.8385,-154 350.8385,-132.0511 350.8385,-132.0511"/>
<polygon fill="#000000" stroke="#000000" points="354.3386,-132.0511 350.8385,-122.0511 347.3386,-132.0512 354.3386,-132.0511"/>
</g>
<!-- SnackbarComponent  -->
<g id="node29" class="node">
<title>SnackbarComponent </title>
<polygon fill="#fb8072" stroke="#000000" points="232.4194,-122 95.5806,-122 95.5806,-86 232.4194,-86 232.4194,-122"/>
<text text-anchor="middle" x="164" y="-99.8" font-family="Times,serif" font-size="14.00" fill="#000000">SnackbarComponent </text>
</g>
<!-- SharedModule&#45;&gt;SnackbarComponent  -->
<g id="edge28" class="edge">
<title>SharedModule&#45;&gt;SnackbarComponent </title>
<path fill="none" stroke="#000000" stroke-dasharray="5,2" d="M703.6311,-161.8321C703.6311,-159.5522 703.6311,-158 703.6311,-158 703.6311,-158 224.1996,-158 224.1996,-158 224.1996,-158 224.1996,-132.2819 224.1996,-132.2819"/>
<polygon fill="#000000" stroke="#000000" points="227.6997,-132.2819 224.1996,-122.2819 220.6997,-132.282 227.6997,-132.2819"/>
</g>
<!-- BrowserAnimationsModule -->
<g id="node16" class="node">
<title>BrowserAnimationsModule</title>
<polygon fill="#8dd3c7" stroke="#000000" points="676.3019,-198 673.3019,-202 652.3019,-202 649.3019,-198 503.6981,-198 503.6981,-162 676.3019,-162 676.3019,-198"/>
<text text-anchor="middle" x="590" y="-175.8" font-family="Times,serif" font-size="14.00" fill="#000000">BrowserAnimationsModule</text>
</g>
<!-- BrowserAnimationsModule&#45;&gt;AppModule -->
<g id="edge15" class="edge">
<title>BrowserAnimationsModule&#45;&gt;AppModule</title>
<path fill="none" stroke="#000000" d="M590,-198.308C590,-218.1455 590,-247 590,-247 590,-247 1468.2331,-247 1468.2331,-247"/>
<polygon fill="#000000" stroke="#000000" points="1468.2332,-250.5001 1478.2331,-247 1468.2331,-243.5001 1468.2332,-250.5001"/>
</g>
<!-- PostsService -->
<g id="node18" class="node">
<title>PostsService</title>
<ellipse fill="#fdb462" stroke="#000000" cx="420" cy="-180" rx="60.2672" ry="18"/>
<text text-anchor="middle" x="420" y="-175.8" font-family="Times,serif" font-size="14.00" fill="#000000">PostsService</text>
</g>
<!-- PostsService&#45;&gt;AppModule -->
<g id="edge17" class="edge">
<title>PostsService&#45;&gt;AppModule</title>
<path fill="none" stroke="#000000" d="M420,-198.2843C420,-219.3211 420,-251 420,-251 420,-251 1468.2219,-251 1468.2219,-251"/>
<polygon fill="#000000" stroke="#000000" points="1468.2219,-254.5001 1478.2219,-251 1468.2219,-247.5001 1468.2219,-254.5001"/>
</g>
<!-- LoginService -->
<g id="node19" class="node">
<title>LoginService</title>
<ellipse fill="#fdb462" stroke="#000000" cx="279" cy="-180" rx="63.1209" ry="18"/>
<text text-anchor="middle" x="279" y="-175.8" font-family="Times,serif" font-size="14.00" fill="#000000">LoginService</text>
</g>
<!-- LoginService&#45;&gt;AppModule -->
<g id="edge18" class="edge">
<title>LoginService&#45;&gt;AppModule</title>
<path fill="none" stroke="#000000" d="M279,-198.1554C279,-220.3519 279,-255 279,-255 279,-255 1467.9986,-255 1467.9986,-255"/>
<polygon fill="#000000" stroke="#000000" points="1467.9986,-258.5001 1477.9986,-255 1467.9986,-251.5001 1467.9986,-258.5001"/>
</g>
<!-- NotificationService -->
<g id="node20" class="node">
<title>NotificationService</title>
<ellipse fill="#fdb462" stroke="#000000" cx="111" cy="-180" rx="86.8107" ry="18"/>
<text text-anchor="middle" x="111" y="-175.8" font-family="Times,serif" font-size="14.00" fill="#000000">NotificationService</text>
</g>
<!-- NotificationService&#45;&gt;AppModule -->
<g id="edge19" class="edge">
<title>NotificationService&#45;&gt;AppModule</title>
<path fill="none" stroke="#000000" d="M111,-198.3228C111,-221.6602 111,-259 111,-259 111,-259 1468.2137,-259 1468.2137,-259"/>
<polygon fill="#000000" stroke="#000000" points="1468.2137,-262.5001 1478.2137,-259 1468.2137,-255.5001 1468.2137,-262.5001"/>
</g>
<!-- InputComponent -->
<g id="node21" class="node">
<title>InputComponent</title>
<polygon fill="#ffffb3" stroke="#000000" points="1344.3837,-122 1233.6163,-122 1233.6163,-86 1344.3837,-86 1344.3837,-122"/>
<text text-anchor="middle" x="1289" y="-99.8" font-family="Times,serif" font-size="14.00" fill="#000000">InputComponent</text>
</g>
<!-- InputComponent&#45;&gt;SharedModule -->
<g id="edge20" class="edge">
<title>InputComponent&#45;&gt;SharedModule</title>
<path fill="none" stroke="#000000" d="M1283.4443,-122.4218C1283.4443,-131.2791 1283.4443,-140 1283.4443,-140 1283.4443,-140 782.3689,-140 782.3689,-140 782.3689,-140 782.3689,-151.8726 782.3689,-151.8726"/>
<polygon fill="#000000" stroke="#000000" points="778.869,-151.8725 782.3689,-161.8726 785.869,-151.8726 778.869,-151.8725"/>
</g>
<!-- SnackbarComponent -->
<g id="node22" class="node">
<title>SnackbarComponent</title>
<polygon fill="#ffffb3" stroke="#000000" points="1215.9201,-122 1082.0799,-122 1082.0799,-86 1215.9201,-86 1215.9201,-122"/>
<text text-anchor="middle" x="1149" y="-99.8" font-family="Times,serif" font-size="14.00" fill="#000000">SnackbarComponent</text>
</g>
<!-- SnackbarComponent&#45;&gt;SharedModule -->
<g id="edge21" class="edge">
<title>SnackbarComponent&#45;&gt;SharedModule</title>
<path fill="none" stroke="#000000" d="M1139.3144,-122.2434C1139.3144,-129.4297 1139.3144,-136 1139.3144,-136 1139.3144,-136 772.5267,-136 772.5267,-136 772.5267,-136 772.5267,-151.8495 772.5267,-151.8495"/>
<polygon fill="#000000" stroke="#000000" points="769.0268,-151.8494 772.5267,-161.8495 776.0268,-151.8495 769.0268,-151.8494"/>
</g>
<!-- FormsModule -->
<g id="node23" class="node">
<title>FormsModule</title>
<polygon fill="#8dd3c7" stroke="#000000" points="1057.8288,-122 1054.8288,-126 1033.8288,-126 1030.8288,-122 962.1712,-122 962.1712,-86 1057.8288,-86 1057.8288,-122"/>
<text text-anchor="middle" x="1010" y="-99.8" font-family="Times,serif" font-size="14.00" fill="#000000">FormsModule</text>
</g>
<!-- FormsModule&#45;&gt;SharedModule -->
<g id="edge22" class="edge">
<title>FormsModule&#45;&gt;SharedModule</title>
<path fill="none" stroke="#000000" d="M977.1682,-122.1592C977.1682,-127.0433 977.1682,-131 977.1682,-131 977.1682,-131 762.6844,-131 762.6844,-131 762.6844,-131 762.6844,-151.7542 762.6844,-151.7542"/>
<polygon fill="#000000" stroke="#000000" points="759.1845,-151.7542 762.6844,-161.7542 766.1845,-151.7542 759.1845,-151.7542"/>
</g>
<!-- CommonModule -->
<g id="node24" class="node">
<title>CommonModule</title>
<polygon fill="#8dd3c7" stroke="#000000" points="944.6681,-122 941.6681,-126 920.6681,-126 917.6681,-122 833.3319,-122 833.3319,-86 944.6681,-86 944.6681,-122"/>
<text text-anchor="middle" x="889" y="-99.8" font-family="Times,serif" font-size="14.00" fill="#000000">CommonModule</text>
</g>
<!-- CommonModule&#45;&gt;SharedModule -->
<g id="edge23" class="edge">
<title>CommonModule&#45;&gt;SharedModule</title>
<path fill="none" stroke="#000000" d="M889,-122.1223C889,-124.9729 889,-127 889,-127 889,-127 752.8422,-127 752.8422,-127 752.8422,-127 752.8422,-151.7604 752.8422,-151.7604"/>
<polygon fill="#000000" stroke="#000000" points="749.3423,-151.7604 752.8422,-161.7604 756.3423,-151.7604 749.3423,-151.7604"/>
</g>
<!-- ReactiveFormsModule -->
<g id="node25" class="node">
<title>ReactiveFormsModule</title>
<polygon fill="#8dd3c7" stroke="#000000" points="815.3047,-122 812.3047,-126 791.3047,-126 788.3047,-122 670.6953,-122 670.6953,-86 815.3047,-86 815.3047,-122"/>
<text text-anchor="middle" x="743" y="-99.8" font-family="Times,serif" font-size="14.00" fill="#000000">ReactiveFormsModule</text>
</g>
<!-- ReactiveFormsModule&#45;&gt;SharedModule -->
<g id="edge24" class="edge">
<title>ReactiveFormsModule&#45;&gt;SharedModule</title>
<path fill="none" stroke="#000000" d="M743,-122.0109C743,-122.0109 743,-151.855 743,-151.855"/>
<polygon fill="#000000" stroke="#000000" points="739.5001,-151.8549 743,-161.855 746.5001,-151.855 739.5001,-151.8549"/>
</g>
</g>
</svg>
